<svg width="27" height="41" viewBox="0 0 27 41" xmlns="http://www.w3.org/2000/svg" xmlns:xlink="http://www.w3.org/1999/xlink"><title>4B4F5671-1F39-431A-9AF0-56D0AA0BE959</title><defs><path id="a" d="M25.657.36v23.635H.2V.36h25.458z"/></defs><g fill="none" fill-rule="evenodd"><path d="M8.401 39.533c-1.066.637-2.033 1.018-3.05 1.018-2.628 0-4.825-2.163-4.952-4.766l5.123-3.069 7.962 3.58-5.083 3.237z" fill="#83B8D7"/><path d="M11.446 26.35l-3.803-1.683c-1.7-.765-3.305-1.401-3.305-3.282 0-.974.295-1.485.759-1.994l8.047 3.566-1.996 1.158c-.55.34-.93.637-.93 1.064 0 .46.523.85 1.228 1.172" fill="#B3D3A2"/><path d="M15.183 8.7l-3.9 2.379c-.346.21-.809.55-.809 1.071 0 .594.9 1.05 1.7 1.432l-4.88-2.164c-1.438-.637-2.872-1.36-2.872-3.102 0-.732.21-1.326.549-1.833L15.52 0c1.265.721 2.491 2.18 2.491 4.133 0 2.093-1.054 3.494-2.828 4.566" fill="#83B8D7"/><path d="M23.48 16.364l-.97.552-8.058-3.577 9.367-5.67c1.265.734 2.504 2.176 2.504 4.131 0 2.092-1.025 3.534-2.843 4.564" fill="#B3D3A2"/><path d="M16.678 23.243l4.767 2.106c1.785.804 2.334 1.749 2.334 2.94 0 .679-.38 1.359-.928 1.828l-8.016-3.58 1.356-.765c1.148-.636 1.528-1.02 1.528-1.443 0-.442-.268-.733-1.041-1.086" fill="#83B8D7"/><path d="M25.172 40.933c-2.028-1.57-4.19-2.631-6.82-3.831L6.195 31.695c-3.053-1.368-5.078-3.193-5.078-6.263 0-2.984 1.437-4.429 3.304-5.615l.675-.426c-.465.509-.759 1.019-.759 1.994 0 1.881 1.605 2.519 3.305 3.282l14.14 6.265c2.46 1.063 4.71 2.888 4.71 5.999 0 1.71-.646 3.24-1.32 4.002" fill="#26A135"/><g transform="translate(1.17 6.122)"><mask id="b" fill="#fff"><use xlink:href="#a"/></mask><path d="M22.566 23.44l-.886.555c.547-.468.929-1.15.929-1.829 0-1.189-.551-2.134-2.336-2.94l-15.12-6.691C2.1 11.178.198 9.425.198 6.368.2 3.554 1.593 1.717 3.8.361a3.212 3.212 0 0 0-.55 1.833c0 1.743 1.436 2.465 2.873 3.102l14.7 6.518c2.67 1.189 4.834 2.984 4.834 6.266 0 2.558-1.19 4.17-3.09 5.36" fill="#006EA6" mask="url(#b)"/></g></g></svg>